<?xml version="1.0" encoding="UTF-8"?><svg id="Layer_2" xmlns="http://www.w3.org/2000/svg" viewBox="0 0 125.41 125.41"><defs><style>.cls-1,.cls-2,.cls-3,.cls-4,.cls-5,.cls-6,.cls-7,.cls-8{stroke-width:0px;}.cls-2{fill:#0d0c0c;}.cls-3{fill:#151515;}.cls-4{fill:#c7c7c7;}.cls-5{fill:#fdfdfc;}.cls-6{fill:#fff;}.cls-7{fill:#f5a6a8;}.cls-8{fill:#02919f;}</style></defs><g id="Layer_1-2"><circle class="cls-6" cx="62.71" cy="62.71" r="59.39"/><path class="cls-1" d="m62.71,125.41C28.13,125.41,0,97.28,0,62.71S28.13,0,62.71,0s62.71,28.13,62.71,62.71-28.13,62.71-62.71,62.71Zm0-118.78C31.79,6.63,6.63,31.79,6.63,62.71s25.16,56.08,56.08,56.08,56.08-25.16,56.08-56.08S93.63,6.63,62.71,6.63Z"/><path class="cls-2" d="m112.46,64.37l-.41-.6c-.68-.98-1.31-1.91-1.87-2.9-.32-.56-.69-1.24-1.01-1.93-.62-1.33-1.42-2.67-2.38-3.98-1.1-1.49-2.55-2.79-4.56-4.09-.8-.51-1.61-.96-2.42-1.32,1.82-2.38,2.64-4.98,2.43-7.76-.13-1.75-.69-3.39-1.65-4.86-.28-.42-.63-.91-1.17-1.3-.47-.34-1-.54-1.53-.56-.99-.05-1.86.48-2.34,1.42-.3.59-.57,1.2-.82,1.78l-.11.26c-.15.33-.4.56-.83.75-1.2.51-2.6.74-4.41.72-.48,0-.97-.02-1.45-.04-1.01-.05-2.04-.13-3.05-.21.01-.03.02-.07.03-.1.29-.95-.09-1.81-1.04-2.35-1.65-.95-3.43-1.88-5.4-2.46.21-.24.37-.52.46-.84.25-.88-.16-1.73-1.06-2.23-1.12-.62-2.31-.93-3.43-1.2-1.28-.3-2.68-.48-4.38-.56-.34-.02-.67-.03-1.01-.04-.07,0-.13,0-.2,0,0-.04,0-.08,0-.13,0-.91-.67-1.71-1.66-2.01-.7-.21-1.41-.29-1.94-.33-.72-.06-1.45-.12-2.17-.15-1.74-.08-3.2-.04-4.58.14-3.61.46-6.78,1.85-9.43,4.16-.62.54-1.3,1.13-1.9,1.85-.26-.05-.52-.08-.78-.1-.73-.03-1.49.07-2.4.33-1.03.3-2.02.86-3.02,1.72-.38.33-.71.73-.98,1.19-.09,0-.18,0-.27-.01-.49-.02-.98-.04-1.48-.06-.48-.02-.97-.04-1.45-.06-1.12-.05-1.98-.12-2.77-.22-1.48-.19-2.43-.9-2.99-2.23-.09-.21-.17-.42-.24-.63-.17-.47-.35-.96-.64-1.45-.44-.76-.98-1.27-1.68-1.56-.41-.17-.83-.27-1.24-.29-.82-.04-1.6.22-2.32.76-1.18.89-2,2.15-2.43,3.75-1.14,4.2-.23,8.2,2.72,11.88.72.9,1.5,1.73,2.33,2.49-.69.27-1.4.58-2.09.94-3.42,1.76-5.81,3.67-7.55,6.01-1.87,2.53-2.74,5.42-2.57,8.58.04.84.23,1.6.44,2.44.09.34.24.67.46.98.38.54.93.85,1.55.88.27.01.54-.03.82-.12,2.36-.82,4.88-1.35,7.31-1.87.93-.2,1.86-.39,2.78-.61,1.59-.36,3.34-.81,5.04-1.57l-.04.13c-.29,1.09-.79,2.12-1.32,3.2l-.26.53c-1.1,2.27-2.18,4.72-2.38,7.42-.33,4.62,1.43,8.62,5.24,11.91,1.85,1.6,4.01,2.69,6.09,3.74l.74.38c1.23.63,2.52,1.19,3.83,1.68,2.39,3.27,5.54,5.76,9.37,7.39,1.24.53,2.53.81,3.78,1.08.28.06.57.12.85.19,1.87.43,3.88.69,6.16.79h0c.7.03,1.41.05,2.12.06,2.38.02,4.66-.45,6.77-.96,1.09-.27,2.33-.57,3.53-.99,2.71-.96,4.64-2.47,5.91-4.62.11-.19.23-.39.35-.58.21-.33.41-.67.6-1.01.42-.75,1.09-1.42,2.12-2.11.67-.45,1.42-.87,2.28-1.3,2.43-1.21,4.43-3.1,6.31-5.93.43-.65.8-1.31,1.16-1.96l.35-.56c2.97-1.63,5.12-3.82,6.37-6.52.73-1.59.77-3.26.73-4.37v-.32c-.03-.88-.06-1.78-.32-2.7.22,0,.44,0,.67-.02,1.31-.08,3.04-.25,4.76-.87.53-.19,1.07-.36,1.61-.53l.11-.03c1.04-.33,1.45-.94,1.61-1.39.22-.62.1-1.32-.34-1.97Zm-3.04,1.01c-.44.14-.88.3-1.32.43-2.1.62-4.25.63-6.41.36-.27-.03-.54-.1-.8,0-.23.1-.3-.02-.38-.17-.4-.67-.83-1.31-1.34-1.9-.84-.97-1.88-1.61-3.19-1.86-1.48-.28-2.94-.17-4.4.12-.27.05-.39.04-.36-.27.1-1.05.11-2.11.12-3.16,0-.13-.05-.29.1-.42.72.77,1.52,1.43,2.4,1.99,3.13,1.99,6.61,2.92,10.35,3.04.38.01.62.11.82.43.15.23.31.65.64.51.27-.12.12-.54.07-.82-.17-.89-.56-1.7-.98-2.51-1.29-2.49-2.91-4.75-5.21-6.52-1.39-1.08-2.9-1.98-4.64-2.63.57-.31,1.08-.58,1.57-.87.16-.09.27,0,.39.05,3.18,1.35,5.68,3.42,7.63,6.14,1.81,2.53,3.21,5.29,5.02,7.81.1.14.07.2-.09.25Zm-15.12,17.06h0s0,0,0,0c0,0-.01,0-.01,0-.77.89-1.5,1.81-2.21,2.74-1.35,1.78-3.01,3.22-5.12,4.19-.29.13-.57.3-.85.46-1.87,1.06-3.37,2.43-4.28,4.32-.27.56-.59,1.1-.97,1.6-.45.6-.93,1.18-1.59,1.59-.19.23-.46.35-.72.49-3.08,1.58-6.45,2.04-9.88,2.23-.12,0-.24,0-.25-.14-.04-.38-.33-.64-.51-.95-.07-.07-.13-.14-.2-.21-.02-.02-.05-.05-.07-.07h-.01c-.05-.01-.07-.04-.07-.08-1.14-.98-2.41-1.74-3.93-2.07-1.02-.23-2.06-.24-3.1-.24-1.42,0-2.67-.41-3.8-1.21-.98-.7-2.1-.96-3.33-.87-.4.03-.77.17-1.17.2-.09.06-.2.1-.28.17-.36.33-.61.16-.9-.12-1.04-.98-2.03-2.01-2.96-3.08-.1-.11-.21-.22-.31-.33-.05-.06-.1-.11-.14-.17-.04-.06-.08-.13-.1-.2-.09-.07-.16-.14-.23-.22s-.13-.17-.18-.26c-.05-.01-.08-.04-.11-.07-.03-.03-.04-.07-.04-.12-.09-.1-.19-.2-.28-.3-.98-1.15-1.88-2.35-2.77-3.56-.07-.09-.12-.25-.28-.19-.15.06-.09.21-.07.32.12.72.41,1.39.74,2.04.35.69.79,1.34,1.21,2,.07.07.21.15.13.25-.05.07-.17,0-.24-.08-.06-.02-.12-.04-.18-.07-.09-.03-.19-.06-.28-.1-1.91-.81-3.73-1.79-5.53-2.81-2.18-1.23-3.98-2.82-5.26-4.91-.88-1.43-1.31-2.96-1.5-4.58-.01-.12-.02-.24.17-.25,1.09-.11,2.03-.56,2.95-1.08.28-.25.57-.48.83-.74.93-.94,1.26-2.08,1.17-3.33-.07-.95.3-1.69,1.06-2.28.35-.27.7-.54,1.06-.81.51-.37,1.04-.71,1.53-1.08,1.1-.84,1.33-1.98.63-3.15-.15-.25-.36-.48-.55-.71-.6-.71-1.43-1.18-2.18-1.72-.46-.26-.92-.51-1.38-.78-.27-.15-.39-.36-.33-.67.07-.41.11-.82.06-1.23-.02-.16.02-.28.17-.38.43-.31.84-.62,1.26-.94,1.07-.93,2.08-1.92,2.95-3.04.08-.1.19-.18.1-.3-.08-.1-.2-.15-.34-.12-.22.04-.37.19-.52.33-2.66,2.36-5.57,4.39-8.86,5.92-2.55,1.18-5.29,1.85-8.02,2.53-1.73.43-3.46.83-5.17,1.3-1,.28-1.01.34-1.11-.65-.2-1.89.18-3.7,1.01-5.41,1.16-2.39,2.97-4.26,5.3-5.72,2.77-1.74,5.79-2.8,9.12-3.08,1.35-.12,2.7.03,4.05.01.49,0,.92.1,1.32.36.18,0,.32.11.47.18,2.57,1.26,4.68,3.06,6.68,4.99.97.94,1.77,2.02,2.54,3.1.57.81,1.24,1.59,1.34,2.66.1,1.07.35,2.13.54,3.19h0c.08.04.06.1.06.16.1.95.75,1.39,1.66,1.61.67.16,1.35.24,2.09.24-.34.57-.63,1.1-.83,1.67-.26.75-.38,1.53-.53,2.31-.25,1.29-.51,2.59-.26,3.9.49,2.54,2,4.48,4.24,5.92,1.75,1.13,3.68,1.9,5.69,2.51,2.36.71,4.82,1,7.28,1.28,2.91.33,5.84.36,8.77.38,2.51.02,4.98-.34,7.46-.65,2.75-.35,5.46-.84,7.99-2,.02,0,.03-.02.05-.03.04-.02.07-.03.11-.02,0,0,0,0,0,0,.02,0,.03-.01.05-.02,0,.02-.01.04-.02.06,0,0,0,0,.01.01Zm-41.98,13.06c-.08-.07-.27-.18,0-.28.5-.18,1.01-.23,1.54-.2.87.04,1.59.44,2.25.95.36.27.73.56,1.14.76.95.45,1.97.63,3.04.67,1.15.04,2.3.04,3.43.43,1.06.37,1.99.89,2.76,1.65.14.14.4.28.29.49-.11.22-.39.04-.61.1-.48-.07-.97-.18-1.48-.23-1.89-.17-3.74-.55-5.55-1.08-1.93-.56-3.78-1.28-5.48-2.31-.46-.28-.9-.6-1.31-.95Zm-17.21-26.54c.54-1.06,1-2.15,1.44-3.24.37-.94.75-1.89.95-2.96,1.14.83,2.32,1.57,3.15,2.65.56.74.67,1.6-.28,2.25-.8.55-1.62,1.08-2.38,1.67-.79.62-1.48,1.3-1.64,2.29-.11.67-.09,1.36-.13,2.04-.01.17-.04.34-.11.5-.56,1.3-1.72,1.89-3.03,2.3-.32.1-.41-.02-.41-.33.01-1.53.65-2.91,1.13-4.32.34-.99.84-1.91,1.31-2.85Zm-10.15-31.2c-.03-1.19.15-2.36.75-3.44.2-.51.53-.93,1-1.25.38-.26.53-.21.66.21.16.51.3,1.03.48,1.54.68,1.87,1.98,3.19,3.96,3.88,1.42.49,2.9.67,4.4.67,1.89,0,3.78.08,5.67,0,1.24-.05,2.41.34,3.61.53.43.07.59.26.71.61.81,2.32.2,4.42-1.13,6.4-.32.55-.81.99-1.2,1.5-.18.22-.36.27-.65.19-1.56-.4-3.15-.39-4.73-.12-1.12.19-2.2.5-3.29.8-.45.12-.93.21-1.37-.02-.55-.28-1.12-.52-1.71-.73-.9-.32-1.72-.74-2.42-1.38-.43-.4-.81-.83-1.2-1.24-1.08-1.15-2.1-2.35-2.68-3.82-.55-1.39-.82-2.83-.85-4.31Zm21.76-1.48c1.57.59,3.04,1.33,4.25,2.45.08.07.15.13.26.09.09-.04.07-.13.07-.21.03-.49-.22-.88-.52-1.24-.48-.56-1.07-1-1.73-1.35-.26-.14-.25-.25-.1-.46.4-.56.93-1.01,1.45-1.46,1.85-1.61,3.96-2.78,6.38-3.48,1.71-.49,3.46-.55,5.22-.53.57,0,1.15.05,1.72.08,0,.05.01.1.02.15-.57.32-1.08.72-1.61,1.08-.92.64-1.7,1.42-2.36,2.3-.46.61-.18,1.34.54,1.42.38.04.67-.15.97-.34.98-.64,1.98-1.25,3.15-1.54,2.04-.5,4.11-.63,6.2-.4.75.08,1.49.24,2.23.44-.1.14-.25.13-.36.17-1.59.49-3.12,1.11-4.58,1.89-.22.12-.44.24-.61.43-.4.46-.23,1.11.37,1.32.21.08.43.11.67.06,1.06-.19,2.12-.35,3.2-.39,2.9-.11,5.64.46,8.23,1.69.06.03.14.04.15.15-.16.03-.32.06-.48.08-1.22.19-2.41.47-3.5,1.05-.65.35-1.31.7-1.96,1.05-.21.11-.4.25-.53.45-.19.3-.21.61,0,.9.21.28.5.42.89.35.2-.04.38-.12.55-.21.96-.55,2.01-.86,3.1-1.04.54-.09,1.07-.06,1.52.32,1.16.99,2.23,2.06,3.18,3.24.52.65.78,1.4,1.04,2.2-.18,0-.32-.02-.46-.02-2.29-.09-4.56-.39-6.84-.6-.86-.08-1.72-.18-2.58-.15-.63.02-.78.21-.65.78.13.59.3,1.17.53,1.73.13.3.34.48.69.52,1.02.11,2.03.23,3.05.33,2.21.21,4.41.42,6.63.57.1,0,.29-.06.27.15-.02.19-.16.19-.31.17-.07,0-.14-.01-.21-.02-6.56-.51-13.12-1-19.71-1.1-3.5-.05-6.99-.01-10.48.32-1.26.12-2.5.36-3.78.28-.11,0-.26.06-.34-.08.25-.39.51-.77.75-1.17.61-1.03.77-2.14.54-3.3-.04-.2-.1-.42-.39-.39-.26.02-.29.22-.3.42-.11,1.34-.62,2.53-1.48,3.61-.76.95-.73.97-1.92.55-.67-.23-1.34-.45-2.02-.68.02-.04.02-.06.03-.07.05-.05.1-.09.15-.14,2.06-1.66,3.02-3.8,3.1-6.31.04-1.17-.32-2.27-.92-3.3-.26-.44-.63-.77-1.2-.78-1.08-.03-2.07-.49-3.19-.57.61-.75,1.34-1.23,2.22-1.45.58-.14,1.21-.24,1.8-.02Zm18.96-5.05s0,0,0-.01h0c.3-.22.64-.36,1-.47.06.13.1.26.11.4-.31.03-.63.05-.94.1-.06,0-.13.05-.17-.02,0,0,0,0,0,0,0,.02,0,.03,0,.05-.02,0-.03-.01-.05-.02l.06-.02Zm32.35,6.46c.3.37.57.76.71,1.21.16.15.21.35.28.53,1.25,3.25.59,6.23-1.52,8.97-.56.73-1.26,1.33-2.08,1.82-1.43.86-3.02,1.27-4.67,1.54-.39.06-.81.18-1.18.06-.88-.27-1.71-.66-2.61-.88-.31-.08-.2-.37-.2-.55,0-.19.22-.08.35-.08.27,0,.54.03.81.03.62.02.69-.05.71-.62-.02-.08-.05-.15-.07-.23-.09-.57-.16-1.13-.26-1.7-.09-.52-.21-.61-.75-.62-.31,0-.63-.04-.94,0-.77.09-1.05-.3-1.24-.92-.36-1.18-.88-2.31-1.69-3.29-.38-.46-.73-.93-1.23-1.43.41.05.7.09.99.12,2.08.27,4.17.56,6.27.56,1.79,0,3.54-.2,5.19-.91.93-.4,1.64-1,2.04-1.89.25-.55.5-1.1.76-1.66.07-.15.15-.29.31-.08Zm-3.65,14.94c1.57.71,3,1.62,4.33,2.68,2.01,1.61,3.44,3.64,4.63,5.83.22.4.42.8.67,1.28-.76-.09-1.44-.1-2.09-.26-.33.02-.64-.07-.96-.12-2.4-.38-4.6-1.22-6.67-2.41-.97-.56-1.85-1.24-2.62-2.03-.15-.16-.28-.32-.29-.56-.03-1.02-.13-2.05-.07-3.08-.03-.22-.04-.45-.1-.67-.08-.26.03-.33.27-.37.59-.08,1.17-.22,1.73-.4.43-.14.79-.07,1.18.11Zm-16.22,4.48c.05.11.1.22.17.32.75,1.19,1.56,2.36,2.19,3.62.41.81.78,1.63.73,2.56-.04.64-.42.92-1.09.83-.04,0-.11-.05-.14.04.17.24.44.41.58.71-.36-.02-.66-.16-.97-.22-.74-.15-1.19-.57-1.45-1.25-.26-.67-.37-1.37-.5-2.06-.26-1.46-1.06-2.57-2.41-3.33-.42-.23-.86-.44-1.37-.29-.91.27-1.73.68-2.27,1.46-.28.41-.56.83-.76,1.29-.29.68-.69,1.31-1.16,1.91-.2.26-.38.36-.72.2.61-.96,1.06-1.98,1.54-2.98.09-.19.12-.28-.12-.39-2.5-1.19-5.03-2.3-7.74-3.02-.41-.11-.82-.24-1.29-.24.05.13.09.21.13.3.82,1.67,1.69,3.32,2.64,4.93.14.24.27.47.29.74.02.2-.03.34-.31.38-1.3.17-2.52,0-3.72-.53-2.25-.97-4.42-2.08-6.6-3.17-.71-.36-1.41-.72-2.17-1.1.08.73.15,1.41.23,2.08.16,1.35.33,2.7.58,4.04.06.33.22.51.58.6.54.13,1.07.24,1.62.31.53.07,1.06.04,1.72.1-.45.21-.55.67-1,.65-.98-.03-1.94-.2-2.87-.51-.38-.13-.6-.37-.69-.74-.18-.74-.29-1.49-.39-2.25-.28-2.04-.49-4.08-.68-6.12-.12-1.34-.22-2.69-.22-4.03,0-.48.11-.58.58-.59.54,0,1.07,0,1.61-.02,1.22-.03,2.43-.13,3.65-.17,2.61-.07,5.23-.03,7.84-.02,1.52,0,3.04,0,4.56.02,2.2.03,4.41.12,6.6.31,1.88.16,3.76.35,5.64.55,1.44.15,2.87.31,4.3.58.91.17,1.78.44,2.66.69.99.29,1.18.36,1.18,1.31.01,2.52.09,5.04-.2,7.56-.08.71-.3,1.13-1.07,1.32-.36.09-.59.08-.87-.15-1.62-1.32-3.29-2.59-5.01-3.8-1.23-.87-2.44-1.74-3.77-2.47-.03,0-.09-.03-.09-.02-.03.04,0,.06.04.07Zm-1.42,7.54s-.03.04-.04.06c-.41-.14-.82-.28-1.23-.42-1.37-.38-2.75-.75-4.16-1-.26-.05-.22-.13-.1-.28.49-.61.84-1.3,1.17-1.99.16-.34.34-.68.61-.96.28-.3.56-.61,1.05-.59.67-.01,1.48.49,1.76,1.12.19.43.34.87.44,1.34.19.9.18,1.84.51,2.71Zm13.6,17.75c-2.08.57-4.24.75-6.37,1.04-2.49.34-4.99.62-7.51.56-3.83-.1-7.63-.43-11.38-1.18-2.74-.55-5.33-1.49-7.6-3.04-2.09-1.43-3.48-3.35-3.45-5.87.02-1.77.35-3.54,1.03-5.21.47-1.15,1.28-2.1,2.32-2.86.57-.52,1.27-.84,2-1.11,2.13-.8,4.35-1.01,6.61-.85,4.14.28,8.14,1.12,11.98,2.65,1.32.53,2.67.98,4.05,1.35.14.04.32.15.44.01.13-.16-.02-.3-.11-.43-.12-.17-.27-.33-.43-.51,1.93-.59,3.68-1.49,5.52-2.19,1.98-.75,4-1.38,6.15-1.52,1.95-.12,3.62.32,4.78,1.95,1.12,1.56,1.95,3.23,2.28,5.09.19,1.07.35,2.14.12,3.22,0,.13,0,.26-.03.4-.21,1.61-1.08,2.92-2.24,4.05-2.26,2.21-5.06,3.6-8.16,4.45Zm-2.95-41.38c-1.84-.1-3.67-.29-5.5-.42.19-.11.4-.17.63-.16.03,0,.06,0,.09,0l1.51.19c1.07.14,2.17.28,3.27.37Z"/><path class="cls-3" d="m82.52,40.44c-.22-.01-.44.05-.63.16,1.83.13,3.66.31,5.5.42-1.09-.09-2.19-.23-3.27-.37l-1.51-.19s-.06,0-.09,0Z"/><path class="cls-3" d="m65.86,31.25c.31-.04.63-.07.94-.1,0-.14-.05-.27-.11-.4-.36.11-.7.25-1,.47,0,0,0,0,0,0,.05.07.11.03.17.02Z"/><path class="cls-3" d="m25.24,56.17c-.02-.11-.1-.19-.26-.2,0,0,0,0,0,0,.16.01.24.09.26.2Z"/><path class="cls-8" d="m29.69,47.13c.7.65,1.52,1.06,2.42,1.38.58.21,1.15.45,1.71.73.44.22.92.14,1.37.02,1.09-.3,2.18-.61,3.29-.8,1.58-.26,3.17-.28,4.73.12.29.07.48.03.65-.19.4-.5.88-.94,1.2-1.5,1.33-1.98,1.94-4.08,1.13-6.4-.12-.35-.28-.54-.71-.61-1.2-.19-2.37-.58-3.61-.53-1.89.08-3.78,0-5.67,0-1.5,0-2.98-.18-4.4-.67-1.99-.69-3.28-2.01-3.96-3.88-.18-.51-.32-1.02-.48-1.54-.13-.42-.28-.47-.66-.21-.47.32-.79.74-1,1.25-.59,1.08-.77,2.25-.75,3.44.04,1.47.3,2.91.85,4.31.58,1.47,1.59,2.67,2.68,3.82.39.42.77.85,1.2,1.24Z"/><path class="cls-8" d="m33.07,76.46c1.31-.41,2.47-1,3.03-2.3.07-.17.1-.33.11-.5.04-.68.02-1.37.13-2.04.16-.98.85-1.67,1.64-2.29.76-.6,1.58-1.13,2.38-1.67.95-.65.84-1.51.28-2.25-.83-1.09-2.01-1.82-3.15-2.65-.2,1.07-.58,2.02-.95,2.96-.43,1.1-.89,2.19-1.44,3.24-.48.93-.97,1.86-1.31,2.85-.49,1.41-1.12,2.79-1.13,4.32,0,.31.09.43.41.33Z"/><path class="cls-8" d="m64.67,99.84c.51.04,1,.15,1.48.23.23-.06.5.12.61-.1.11-.21-.15-.35-.29-.49-.77-.77-1.7-1.28-2.76-1.65-1.12-.4-2.28-.39-3.43-.43-1.07-.04-2.09-.22-3.04-.67-.41-.2-.78-.48-1.14-.76-.66-.5-1.38-.9-2.25-.95-.52-.03-1.04.03-1.54.2-.28.1-.09.21,0,.28.41.35.85.66,1.31.95,1.7,1.03,3.55,1.75,5.48,2.31,1.81.53,3.66.91,5.55,1.08Z"/><path class="cls-5" d="m74.03,59.48c-.49-.02-.77.29-1.05.59-.26.28-.44.62-.61.96-.33.7-.67,1.38-1.17,1.99-.12.15-.16.23.1.28,1.41.25,2.79.62,4.16,1,.41.14.82.28,1.23.42.02-.02.05-.05.04-.06-.33-.88-.32-1.81-.51-2.71-.1-.46-.25-.91-.44-1.34-.28-.63-1.09-1.13-1.76-1.12Z"/><path class="cls-4" d="m45.65,90.57c.07-.1-.06-.18-.13-.25-.03.05-.07.11-.1.16.06.08.18.15.24.08Z"/><path class="cls-4" d="m46.97,90s.02.09.04.12c.03.03.06.05.11.07.03-.12-.03-.18-.15-.19Z"/><path class="cls-4" d="m50.55,65.28c0-.06.02-.13-.06-.16-.03.07-.02.13.06.16Z"/><path class="cls-5" d="m42.69,37.76c1.12.08,2.11.53,3.19.57.57.02.95.35,1.2.78.6,1.02.96,2.12.92,3.3-.09,2.51-1.05,4.65-3.1,6.31-.05.04-.1.09-.15.14,0,0-.01.02-.03.07.67.23,1.35.45,2.02.68,1.19.41,1.16.39,1.92-.55.86-1.08,1.38-2.26,1.48-3.61.02-.19.04-.39.3-.42.29-.02.35.2.39.39.23,1.16.08,2.26-.54,3.3-.23.4-.5.78-.75,1.17.08.14.23.08.34.08,1.27.08,2.52-.16,3.78-.28,3.49-.33,6.98-.37,10.48-.32,6.59.1,13.15.59,19.71,1.1.07,0,.14.01.21.02.15.02.29.02.31-.17.02-.21-.16-.15-.27-.15-2.21-.14-4.42-.36-6.63-.57-1.02-.1-2.03-.22-3.05-.33-.35-.04-.56-.21-.69-.52-.24-.56-.4-1.14-.53-1.73-.13-.57.02-.76.65-.78.87-.03,1.73.07,2.58.15,2.28.21,4.55.51,6.84.6.14,0,.28.01.46.02-.25-.8-.51-1.55-1.04-2.2-.95-1.18-2.02-2.25-3.18-3.24-.45-.38-.98-.41-1.52-.32-1.1.18-2.15.49-3.1,1.04-.17.1-.35.18-.55.21-.38.07-.68-.07-.89-.35-.22-.29-.2-.6,0-.9.13-.2.32-.34.53-.45.65-.35,1.31-.69,1.96-1.05,1.09-.59,2.28-.86,3.5-1.05.16-.03.32-.05.48-.08-.01-.1-.09-.12-.15-.15-2.59-1.22-5.33-1.79-8.23-1.69-1.08.04-2.14.19-3.2.39-.24.04-.45.01-.67-.06-.6-.21-.78-.86-.37-1.32.17-.19.39-.31.61-.43,1.45-.78,2.99-1.4,4.58-1.89.11-.04.26-.02.36-.17-.74-.21-1.48-.36-2.23-.44-2.09-.23-4.17-.1-6.2.4-1.17.29-2.17.9-3.15,1.54-.3.19-.59.39-.97.34-.72-.09-1-.81-.54-1.42.66-.88,1.43-1.66,2.36-2.3.53-.37,1.04-.76,1.61-1.08,0-.05-.01-.1-.02-.15-.57-.03-1.15-.07-1.72-.08-1.76-.02-3.51.03-5.22.53-2.42.7-4.53,1.87-6.38,3.48-.52.45-1.05.9-1.45,1.46-.15.21-.15.32.1.46.66.35,1.25.79,1.73,1.35.31.36.55.75.52,1.24,0,.08.02.17-.07.21-.11.04-.18-.02-.26-.09-1.22-1.13-2.69-1.87-4.25-2.45-.6-.22-1.22-.12-1.8.02-.88.22-1.61.71-2.22,1.45Zm9.55,7.04c.05-1.54.72-2.78,2.05-3.69,1.17-.8,2.51-1.11,3.94-1.06,1.76.06,3.37.59,4.89,1.38,1.66.86,3.03,2.02,4.11,3.49.15.2.3.39.06.64-.87.9-1.71,1.82-2.59,2.71-.47.48-.6.44-.96-.13-.53-.84-1.01-1.71-1.66-2.47-1.25-1.46-2.83-2.44-4.84-2.66-1.61-.17-2.93.33-3.83,1.67-.23.34-.44.68-.65,1.03-.07.11-.14.25-.32.22-.2-.03-.24-.19-.24-.34,0-.27.02-.53.04-.8Z"/><path class="cls-5" d="m78.21,57.06c1.33.72,2.55,1.6,3.77,2.47,1.71,1.21,3.39,2.47,5.01,3.8.28.23.51.24.87.15.77-.18.99-.6,1.07-1.32.29-2.52.22-5.04.2-7.56,0-.95-.19-1.02-1.18-1.31-.88-.26-1.75-.52-2.66-.69-1.42-.27-2.86-.43-4.3-.58-1.88-.2-3.76-.39-5.64-.55-2.2-.19-4.4-.28-6.6-.31-1.52-.02-3.04-.01-4.56-.02-2.61,0-5.23-.05-7.84.02-1.22.03-2.44.14-3.65.17-.53.01-1.07,0-1.61.02-.48,0-.58.11-.58.59,0,1.35.09,2.69.22,4.03.19,2.04.4,4.09.68,6.12.1.75.21,1.5.39,2.25.09.37.31.61.69.74.93.31,1.89.48,2.87.51.45.01.56-.44,1-.65-.66-.05-1.19-.02-1.72-.1-.55-.07-1.09-.19-1.62-.31-.35-.08-.52-.27-.58-.6-.25-1.34-.42-2.69-.58-4.04-.08-.67-.15-1.35-.23-2.08.76.38,1.46.75,2.17,1.1,2.18,1.1,4.35,2.2,6.6,3.17,1.2.52,2.42.7,3.72.53.28-.04.33-.18.31-.38-.03-.27-.15-.51-.29-.74-.95-1.61-1.81-3.26-2.64-4.93-.04-.08-.07-.17-.13-.3.47,0,.88.13,1.29.24,2.7.72,5.24,1.83,7.74,3.02.23.11.21.2.12.39-.49,1-.94,2.02-1.54,2.98.35.16.52.06.72-.2.47-.6.86-1.22,1.16-1.91.2-.46.48-.88.76-1.29.54-.78,1.35-1.19,2.27-1.46.51-.15.95.05,1.37.29,1.35.76,2.15,1.87,2.41,3.33.13.7.23,1.39.5,2.06.27.68.71,1.1,1.45,1.25.31.06.61.2.97.22-.14-.3-.41-.47-.58-.71.03-.09.09-.04.14-.04.67.1,1.05-.18,1.09-.83.05-.92-.32-1.75-.73-2.56-.64-1.26-1.44-2.42-2.19-3.62-.06-.1-.11-.21-.17-.32-.04-.01-.07-.04-.04-.07,0-.01.06.01.09.02Zm-1.55-2.56c-.27-.12-.56-.2-.85-.23-.75-.07-1.1.28-.95.98.04.18.12.36.19.53.2.47.51.89.79,1.32.25.39.48.78.72,1.17-.13,0-.18-.03-.24-.07-1.35-1.1-2.37-1.18-3.89-.29-.2.12-.34.1-.54,0-3.54-1.68-7.07-3.37-11.08-3.85-.73-.09-1.44-.34-2.19-.21-.66.12-.89.5-.61,1.07.27.54.58,1.07.89,1.59.66,1.1,1.32,2.21,1.93,3.45-.17-.06-.25-.08-.32-.12-1.36-.66-2.72-1.33-4.08-1.99-1.58-.76-3.1-1.63-4.8-2.14-.18-.05-.2-.15-.22-.29-.13-1.03-.16-2.07-.23-3.11-.01-.21.11-.22.29-.24,3.03-.26,6.07-.3,9.1-.27,3.08.03,6.17,0,9.25.06,2.09.05,4.18.16,6.26.35,2.57.23,5.15.46,7.7.82,1.33.19,2.65.43,3.91.91.57.21.73.53.72,1.06-.03,1.28-.03,2.56-.03,3.85,0,1.39-.22,2.76-.35,4.2-.1-.09-.13-.12-.17-.16-2.13-2.2-4.55-4.1-7.02-5.95-1.29-.97-2.68-1.8-4.18-2.45Z"/><path class="cls-8" d="m94.92,41.32c-1.65.71-3.4.91-5.19.91-2.11,0-4.19-.3-6.27-.56-.29-.04-.58-.07-.99-.12.49.5.85.97,1.23,1.43.81.99,1.33,2.11,1.69,3.29.19.62.47,1.01,1.24.92.31-.04.62,0,.94,0,.54.01.66.11.75.62.1.56.17,1.13.26,1.7.01.08.04.15.07.23-.02.56-.1.63-.71.62-.27,0-.54-.03-.81-.03-.12,0-.35-.1-.35.08,0,.18-.11.47.2.55.9.22,1.73.61,2.61.88.37.12.79,0,1.18-.06,1.65-.27,3.24-.68,4.67-1.54.82-.49,1.51-1.09,2.08-1.82,2.12-2.74,2.78-5.72,1.52-8.97-.07-.19-.12-.39-.28-.53-.14-.45-.41-.84-.71-1.21-.16-.21-.24-.08-.31.08-.25.55-.51,1.1-.76,1.66-.4.9-1.11,1.5-2.04,1.89Z"/><path class="cls-5" d="m104.49,57.32c-1.95-2.73-4.45-4.79-7.63-6.14-.12-.05-.24-.14-.39-.05-.49.28-1,.55-1.57.87,1.75.65,3.25,1.56,4.64,2.63,2.29,1.78,3.92,4.03,5.21,6.52.42.81.81,1.62.98,2.51.05.28.2.7-.07.82-.33.14-.5-.28-.64-.51-.2-.32-.45-.41-.82-.43-3.74-.13-7.23-1.05-10.35-3.04-.89-.57-1.68-1.22-2.4-1.99-.15.14-.1.29-.1.42,0,1.06-.02,2.11-.12,3.16-.03.31.09.32.36.27,1.46-.29,2.92-.4,4.4-.12,1.31.25,2.36.89,3.19,1.86.51.59.95,1.23,1.34,1.9.09.15.16.27.38.17.26-.11.53-.04.8,0,2.16.27,4.3.26,6.41-.36.45-.13.88-.29,1.32-.43.16-.05.19-.11.09-.25-1.81-2.52-3.21-5.28-5.02-7.81Z"/><path class="cls-5" d="m94.26,82.4s0,0,0,0c-.04-.02-.07,0-.11.02-.02,0-.03.02-.05.03-2.52,1.16-5.23,1.65-7.99,2-2.48.31-4.95.66-7.46.65-2.93-.02-5.85-.05-8.77-.38-2.46-.28-4.91-.57-7.28-1.28-2.01-.6-3.94-1.38-5.69-2.51-2.24-1.44-3.74-3.37-4.24-5.92-.25-1.31.01-2.61.26-3.9.15-.77.27-1.55.53-2.31.19-.57.49-1.1.83-1.67-.74,0-1.42-.08-2.09-.24-.91-.21-1.56-.66-1.66-1.61-.07-.04-.08-.1-.06-.16h0c-.19-1.06-.44-2.12-.54-3.19-.1-1.06-.77-1.85-1.34-2.66-.77-1.08-1.57-2.16-2.54-3.1-1.99-1.93-4.11-3.73-6.68-4.99-.15-.07-.28-.18-.47-.18-.4-.25-.83-.36-1.32-.36-1.35.01-2.7-.13-4.05-.01-3.32.28-6.34,1.34-9.12,3.08-2.33,1.46-4.14,3.32-5.3,5.72-.83,1.71-1.2,3.53-1.01,5.41.1.99.11.93,1.11.65,1.71-.47,3.44-.87,5.17-1.3,2.73-.68,5.47-1.35,8.02-2.53,3.29-1.52,6.2-3.55,8.86-5.92.15-.14.3-.29.52-.33.14-.03.26.02.34.12.09.12-.02.2-.1.3-.86,1.12-1.87,2.11-2.95,3.04-.42.31-.84.63-1.26.94-.14.1-.19.22-.17.38.05.41.02.83-.06,1.23-.06.31.06.52.33.67.46.26.92.52,1.38.78.76.54,1.58,1.01,2.18,1.72.19.23.4.46.55.71.7,1.17.48,2.31-.63,3.15-.5.38-1.03.72-1.53,1.08-.36.26-.71.53-1.06.81-.77.59-1.14,1.33-1.06,2.28.09,1.25-.24,2.39-1.17,3.33-.26.26-.56.49-.83.74-.92.51-1.86.97-2.95,1.08-.19.02-.19.13-.17.25.19,1.62.62,3.16,1.5,4.58,1.28,2.09,3.08,3.68,5.26,4.91,1.8,1.01,3.62,1.99,5.53,2.81.09.04.18.06.28.1.06.02.12.04.18.07.03-.05.07-.11.1-.16-.42-.66-.86-1.31-1.21-2-.33-.65-.62-1.32-.74-2.04-.02-.11-.08-.26.07-.32.16-.06.21.1.28.19.9,1.2,1.8,2.41,2.77,3.56.09.1.18.2.28.3.13,0,.18.07.15.19.05.09.11.18.18.26s.14.16.23.22c.03.07.06.14.1.2.04.06.09.12.14.17.1.11.21.21.31.33.93,1.07,1.92,2.1,2.96,3.08.3.28.54.45.9.12.08-.07.19-.11.28-.17.4-.03.77-.17,1.17-.2,1.23-.1,2.35.17,3.33.87,1.13.8,2.38,1.2,3.8,1.21,1.03,0,2.08.01,3.1.24,1.52.34,2.79,1.09,3.93,2.07,0,.05.02.07.07.07h.01s.05.06.07.08c.07.07.13.14.2.21.18.31.47.58.51.95.02.15.13.15.25.14,3.44-.19,6.8-.65,9.88-2.23.26-.13.53-.26.72-.49.67-.41,1.14-.99,1.59-1.59.38-.5.7-1.04.97-1.6.91-1.9,2.42-3.27,4.28-4.32.28-.16.56-.32.85-.46,2.1-.97,3.76-2.41,5.12-4.19.71-.93,1.44-1.85,2.21-2.74,0,0,.01,0,.01,0,0,0,0,0,0,0h0s0,0-.01-.01c0-.02.01-.04.02-.06-.02,0-.03.01-.05.02ZM24.98,55.97c.16.01.24.09.26.2-.02-.11-.1-.19-.26-.2,0,0,0,0,0,0Zm14.46-1.84c-.42.44-.91.81-1.36,1.21-3.17,2.78-6.76,4.95-10.86,6.33-1.89.64-3.84,1.06-5.88.96-.2,0-.31.08-.43.2-.33.34-.65.67-.98,1-.07.07-.15.14-.26.09-.09-.04-.09-.13-.08-.21.02-.13.03-.27.07-.39.19-.6.53-1.12.92-1.62,1.47-1.86,3.17-3.53,5.03-5.05,3.14-2.55,6.81-3.64,10.92-3.54.58.04,1.17.07,1.74.19.35.07.69.17,1.02.28.41.13.43.25.14.55Zm47.72,32.25c-1.24.3-2.47.61-3.71.89-2.61.59-4.54,2.08-6.02,4.12-.53.72-.77,1.55-.61,2.44.17.91.2.93,1.16.8.18-.02.47-.15.53.07.08.26-.24.3-.44.38-.08.03-.16.05-.24.07-1.27.36-2.59.49-3.9.62-3.01.3-6.02.11-9.02-.22-3.59-.4-6.97-1.38-10.1-3.09-2.31-1.26-4.5-2.68-6.13-4.72-3.23-4.06-5.09-8.5-4.2-13.71-.12.08-.26.17-.39.27-1.05.78-2.09,1.57-3.14,2.34-.13.09-.28.31-.47.17-.18-.13-.08-.35-.02-.52.2-.55.57-1.01,1-1.43,1.1-1.1,2.37-1.99,3.8-2.68,1.08-.52,2.23-.68,3.43-.64.28,0,.64,0,.67.35.03.32-.32.37-.57.44-.48.12-.97.21-1.45.32-.14.03-.27.05-.2.26.12.35.19.72.31,1.08.73,2.26,2.13,4.14,3.91,5.75,4.16,3.77,9.28,5.74,14.86,6.77,2,.37,4.03.45,6.06.57,3.59.2,7.16.15,10.71-.38,1.36-.2,2.72-.43,4.08-.62.18-.03.49-.18.55.09.05.22-.28.2-.46.25Z"/><path class="cls-5" d="m65.67,31.23l-.06.02s.03.01.05.02c0-.02,0-.03,0-.05Z"/><path class="cls-5" d="m65.68,31.23h0s0,0,0,0c0,0,0,0,0,0,0,0,0,0,0,0Z"/><path class="cls-2" d="m87.08,86.05c-1.36.2-2.72.42-4.08.62-3.55.53-7.12.58-10.71.38-2.03-.11-4.06-.2-6.06-.57-5.58-1.03-10.7-3-14.86-6.77-1.78-1.61-3.19-3.49-3.91-5.75-.11-.36-.18-.73-.31-1.08-.07-.21.06-.23.2-.26.48-.11.97-.2,1.45-.32.25-.07.6-.12.57-.44-.03-.35-.4-.34-.67-.35-1.2-.04-2.35.12-3.43.64-1.43.69-2.7,1.59-3.8,2.68-.42.42-.79.88-1,1.43-.06.17-.16.39.02.52.19.14.34-.07.47-.17,1.05-.77,2.09-1.56,3.14-2.34.13-.1.27-.18.39-.27-.89,5.22.96,9.66,4.2,13.71,1.63,2.04,3.81,3.46,6.13,4.72,3.13,1.71,6.52,2.69,10.1,3.09,3,.33,6,.52,9.02.22,1.31-.13,2.63-.26,3.9-.62.08-.02.17-.04.24-.07.2-.08.52-.12.44-.38-.06-.22-.35-.09-.53-.07-.96.13-.99.12-1.16-.8-.16-.89.08-1.72.61-2.44,1.48-2.04,3.4-3.52,6.02-4.12,1.24-.28,2.47-.59,3.71-.89.18-.04.5-.03.46-.25-.05-.26-.37-.11-.55-.09Zm-15.12,8.89c-2.01,0-4-.22-5.99-.44-1.95-.22-3.87-.58-5.74-1.14-2.83-.85-5.39-2.19-7.73-3.9-.3-.22-.26-.33.04-.5.67-.39,1.39-.57,2.18-.59,2.82-.06,5.29.83,7.51,2.41.83.59,1.67,1.16,2.5,1.74.1.07.21.17.34.08.12-.09.17-.22.13-.36-.04-.15-.09-.31-.17-.45-.14-.24-.3-.46-.47-.7,1.62-.29,6.72,2.25,7.67,3.81-.08.08-.19.04-.28.04Z"/><path class="cls-2" d="m39.3,53.58c-.34-.11-.68-.21-1.02-.28-.57-.12-1.15-.15-1.74-.19-4.11-.1-7.79.99-10.92,3.54-1.86,1.52-3.56,3.18-5.03,5.05-.39.49-.73,1.02-.92,1.62-.04.13-.05.26-.07.39,0,.08-.01.17.08.21.11.05.18-.02.26-.09.33-.33.66-.67.98-1,.12-.12.23-.21.43-.2,2.03.1,3.98-.32,5.88-.96,4.1-1.38,7.68-3.55,10.86-6.33.46-.4.95-.77,1.36-1.21.28-.3.27-.41-.14-.55Zm-2.73,1.89c-2.62,1.95-5.47,3.53-8.55,4.74-1.47.58-2.99,1-4.57,1.2-.4.07-.79.14-1.3.22.16-.18.24-.29.34-.38.8-.81,1.6-1.63,2.4-2.44,2.96-3.02,6.54-4.86,10.98-5.03.94-.03,1.88-.02,2.91.21-.79.53-1.49,1-2.2,1.48Z"/><path class="cls-2" d="m66.61,68.16c-.21-.14-.44-.25-.67-.36-1.62-.71-3.15-.26-4.06,1.19-.31.5-.49,1.05-.65,1.6,0,.15,0,.29-.09.42-.02.1-.03.2-.05.3,0,.08.01.16,0,.24-.09,2.04.52,3.88,1.86,5.49.89,1.08,2.02,1.84,3.57,1.83h.03s0-.01.02-.01h.02s0,0,0,0c.09-.06.19-.06.29-.05,1.55-.46,2.15-1.59,2.27-2.98.18-2.05-.41-3.91-1.69-5.57-.08-.1-.16-.19-.23-.29-.1-.14-.19-.29-.3-.45.3-.05.44.16.59.3.72.64,1.43,1.3,1.92,2.12.16.26.4.49.59.73.08.1.17.15.29.1.15-.06.09-.17.04-.27-.9-1.71-2.06-3.23-3.74-4.34Z"/><path class="cls-2" d="m95.03,68.57c-.8-.52-1.65-.42-2.28.27-.67.73-.95,1.62-1.15,2.54-.01.36-.03.72-.04,1.08,0,.09.03.2.15.21.15.01.12-.12.14-.2.04-.18.06-.37.1-.55.13-.6.25-1.21.65-1.83-.05.95-.15,1.8-.11,2.65.05,1.13.36,2.19,1.09,3.11.52.65,1.16.98,2.03.71h0c.03-.08.1-.11.18-.12.71-.47,1.02-1.17,1.18-1.93.37-1.69.04-3.29-.85-4.78-.27-.46-.63-.85-1.1-1.16Z"/><path class="cls-2" d="m66.22,79.52c-.6-.04-1.12-.29-1.59-.61-1.03-.7-1.95-1.51-2.68-2.49-.08-.1-.13-.3-.29-.22-.13.06-.06.24-.02.37.02.07.02.16.03.23h0c.09.05.1.13.11.22h-.03s.03,0,.03,0h0s.04.07.05.1c.6,1.01,1.46,1.78,2.5,2.39.52.31,1.1.48,1.73.47.15,0,.29-.03.36-.16.08-.17-.06-.24-.19-.3Z"/><path class="cls-2" d="m98.4,71.19c-.44-1.1-1.06-2.1-1.97-2.91-.22-.19-.45-.38-.75-.44-.11-.02-.23-.01-.29.11-.05.11.02.18.1.24,1.44,1.07,2.08,2.59,2.7,4.13.04.09-.05.29.16.27.16-.02.14-.18.16-.29.02-.08.03-.16.03-.2.01-.34-.03-.63-.14-.91Z"/><path class="cls-2" d="m52.44,45.93c.18.03.25-.11.32-.22.21-.35.42-.69.65-1.03.9-1.34,2.22-1.84,3.83-1.67,2.01.22,3.58,1.2,4.84,2.66.65.76,1.13,1.63,1.66,2.47.36.57.49.61.96.13.88-.89,1.73-1.81,2.59-2.71.24-.25.09-.44-.06-.64-1.08-1.47-2.45-2.63-4.11-3.49-1.52-.79-3.14-1.33-4.89-1.38-1.43-.05-2.76.26-3.94,1.06-1.33.91-2.01,2.15-2.05,3.69-.01.27-.04.53-.04.8,0,.14.04.3.24.34Z"/><path class="cls-2" d="m87.86,62.91s.07.07.17.16c.14-1.45.35-2.82.35-4.2,0-1.28,0-2.56.03-3.85.01-.53-.16-.85-.72-1.06-1.26-.48-2.58-.72-3.91-.91-2.56-.36-5.13-.59-7.7-.82-2.08-.19-4.16-.31-6.26-.35-3.08-.07-6.17-.03-9.25-.06-3.04-.03-6.07.02-9.1.27-.18.02-.31.02-.29.24.07,1.04.11,2.08.23,3.11.02.14.04.24.22.29,1.7.52,3.23,1.38,4.8,2.14,1.36.66,2.72,1.33,4.08,1.99.07.03.15.06.32.12-.61-1.25-1.27-2.35-1.93-3.45-.31-.52-.62-1.05-.89-1.59-.28-.57-.05-.96.61-1.07.75-.13,1.46.12,2.19.21,4.01.48,7.55,2.17,11.08,3.85.2.09.33.11.54,0,1.52-.89,2.54-.81,3.89.29.05.04.11.08.24.07-.24-.39-.47-.78-.72-1.17-.28-.43-.59-.85-.79-1.32-.07-.17-.15-.35-.19-.53-.15-.7.2-1.05.95-.98.3.03.58.11.85.23,1.5.65,2.88,1.48,4.18,2.45,2.47,1.85,4.89,3.75,7.02,5.95Z"/><path class="cls-7" d="m91.47,52.93c-.24.03-.35.11-.27.37.07.21.07.44.1.67-.06,1.03.04,2.05.07,3.08,0,.24.14.4.29.56.77.8,1.64,1.47,2.62,2.03,2.06,1.19,4.27,2.04,6.67,2.41.32.05.63.15.96.12.66.16,1.33.17,2.09.26-.25-.47-.45-.88-.67-1.28-1.19-2.19-2.62-4.22-4.63-5.83-1.32-1.06-2.76-1.96-4.33-2.68-.39-.18-.75-.25-1.18-.11-.56.19-1.14.32-1.73.4Z"/><path class="cls-7" d="m24.88,58.81c-.8.81-1.6,1.63-2.4,2.44-.09.1-.18.2-.34.38.5-.09.9-.16,1.3-.22,1.58-.2,3.1-.62,4.57-1.2,3.08-1.21,5.93-2.79,8.55-4.74.71-.48,1.41-.95,2.2-1.48-1.02-.23-1.97-.24-2.91-.21-4.44.16-8.02,2.01-10.98,5.03Z"/><path class="cls-7" d="m100.74,73.89c.02-.13.02-.26.03-.4.22-1.08.07-2.16-.12-3.22-.33-1.86-1.16-3.53-2.28-5.09-1.17-1.62-2.83-2.07-4.78-1.95-2.15.14-4.17.77-6.15,1.52-1.84.7-3.59,1.6-5.52,2.19.16.18.31.34.43.51.09.13.24.27.11.43-.12.14-.3.03-.44-.01-1.38-.37-2.73-.83-4.05-1.35-3.83-1.53-7.84-2.36-11.98-2.65-2.27-.16-4.48.06-6.61.85-.73.27-1.42.6-2,1.11-1.04.76-1.86,1.71-2.32,2.86-.68,1.67-1.01,3.44-1.03,5.21-.03,2.52,1.36,4.44,3.45,5.87,2.27,1.55,4.86,2.49,7.6,3.04,3.75.75,7.56,1.08,11.38,1.18,2.52.07,5.02-.22,7.51-.56,2.14-.29,4.3-.47,6.37-1.04,3.1-.86,5.9-2.24,8.16-4.45,1.16-1.14,2.02-2.44,2.24-4.05Zm-34.69,6.09c-.63.01-1.2-.16-1.73-.47-1.04-.6-1.9-1.38-2.5-2.39-.02-.03-.04-.07-.05-.1h0s-.03.01-.03.01h.03c0-.1-.02-.18-.11-.23h0c0-.08,0-.16-.03-.24-.04-.13-.11-.31.02-.37.17-.08.22.12.29.22.73.98,1.65,1.79,2.68,2.49.47.32.99.57,1.59.61.13.07.26.14.19.3-.06.14-.21.16-.36.16Zm4.25-7.21c-.12.05-.21,0-.29-.1-.19-.25-.43-.47-.59-.73-.5-.83-1.21-1.48-1.92-2.12-.15-.14-.29-.35-.59-.3.11.17.2.31.3.45.07.1.16.19.23.29,1.28,1.66,1.87,3.53,1.69,5.57-.13,1.39-.72,2.52-2.27,2.98-.1-.02-.2-.02-.29.05h-.02s-.02,0-.02,0h-.03c-1.55.03-2.67-.74-3.57-1.81-1.33-1.6-1.95-3.45-1.86-5.49,0-.08,0-.16,0-.24.02-.1.03-.2.05-.3.1-.13.1-.27.09-.42.17-.55.34-1.1.65-1.6.91-1.45,2.43-1.91,4.06-1.19.23.1.46.22.67.36,1.69,1.11,2.85,2.62,3.74,4.34.05.1.11.21-.04.27Zm26.66,1.74c-.17.76-.48,1.45-1.18,1.93-.08,0-.15.04-.18.12h0c-.88.27-1.52-.06-2.03-.7-.73-.92-1.04-1.98-1.09-3.11-.04-.86.06-1.71.11-2.65-.41.62-.53,1.22-.65,1.83-.04.18-.06.37-.1.55-.02.08.01.21-.14.2-.12,0-.15-.12-.15-.21,0-.36.03-.72.04-1.08.21-.92.49-1.81,1.15-2.54.63-.69,1.48-.79,2.28-.27.47.3.82.7,1.1,1.16.89,1.5,1.22,3.09.85,4.78Zm1.37-1.92c-.2.02-.12-.18-.16-.27-.61-1.54-1.26-3.06-2.7-4.13-.08-.06-.15-.13-.1-.24.06-.12.18-.13.29-.11.3.06.54.24.75.44.91.81,1.53,1.81,1.97,2.91.11.28.15.57.14.91,0,.04-.02.12-.03.2-.02.11,0,.28-.16.29Z"/><path class="cls-7" d="m64.57,91.08c.16.24.33.46.47.7.08.14.13.29.17.45.03.14-.01.27-.13.36-.13.09-.24-.01-.34-.08-.84-.58-1.68-1.15-2.5-1.74-2.22-1.58-4.69-2.47-7.51-2.41-.79.02-1.51.2-2.18.59-.3.17-.33.28-.04.5,2.34,1.71,4.9,3.04,7.73,3.9,1.87.56,3.79.93,5.74,1.14,1.99.22,3.98.44,5.99.44.09,0,.2.05.28-.04-.96-1.56-6.05-4.11-7.67-3.81Z"/></g></svg>